<svg width="151" height="47" viewBox="0 0 151 47" fill="none" xmlns="http://www.w3.org/2000/svg">
<path d="M16.9865 32.5826V13.2461L14.2251 19.9771L14.0657 20.2857C13.5225 21.3374 12.875 22.3319 12.1331 23.2543L11.0034 24.4373L9.45535 25.7427L1.31055 32.5826H16.9865Z" fill="url(#paint0_linear_67_21)"/>
<path d="M44.3226 32.5827H21.2271L22.2496 28.9207C22.9892 26.2715 23.5148 23.5673 23.8211 20.8339V18.4543C23.8211 16.6345 23.6909 14.817 23.4315 13.0158L23.3609 12.5255L21.2271 2.83008C31.5057 10.5674 41.4775 23.5536 44.3226 32.5827Z" fill="url(#paint1_linear_67_21)"/>
<path d="M47 34.8809H0C1.69219 38.4617 8.84214 46.9424 23.3745 46.9424C37.7227 46.0721 45.1033 38.5387 47 34.8809Z" fill="url(#paint2_linear_67_21)"/>
<path d="M18.1865 34.9472V2.91016H20.0275V34.9472H18.1865Z" fill="url(#paint3_linear_67_21)"/>
<ellipse cx="19.1068" cy="1.78135" rx="1.95252" ry="1.78135" fill="url(#paint4_linear_67_21)"/>
<path d="M62.8157 8.3967C62.8157 7.89537 62.6557 7.4687 62.3357 7.1167C62.0157 6.7647 61.621 6.5887 61.1517 6.5887C60.6877 6.5887 60.2957 6.7647 59.9757 7.1167C59.6557 7.4687 59.4957 7.89537 59.4957 8.3967C59.4957 8.8927 59.6557 9.3167 59.9757 9.6687C60.2957 10.0154 60.6877 10.1887 61.1517 10.1887C61.621 10.1887 62.0157 10.0154 62.3357 9.6687C62.6557 9.3167 62.8157 8.8927 62.8157 8.3967ZM63.2397 10.4527C62.6743 11.002 61.9783 11.2767 61.1517 11.2767C60.325 11.2767 59.629 11.002 59.0637 10.4527C58.4983 9.89804 58.2157 9.21004 58.2157 8.3887C58.2157 7.56737 58.4983 6.88204 59.0637 6.3327C59.629 5.77804 60.325 5.5007 61.1517 5.5007C61.9783 5.5007 62.6743 5.77804 63.2397 6.3327C63.805 6.88204 64.0877 7.56737 64.0877 8.3887C64.0877 9.21004 63.805 9.89804 63.2397 10.4527ZM67.089 10.2207C67.489 10.2207 67.849 10.0207 68.169 9.6207L68.881 10.4207C68.3264 10.9967 67.7264 11.2847 67.081 11.2847C66.4357 11.2847 65.889 11.082 65.441 10.6767C64.9984 10.266 64.777 9.7327 64.777 9.0767C64.777 8.41537 65.001 7.87937 65.449 7.4687C65.9024 7.0527 66.4384 6.8447 67.057 6.8447C67.3664 6.8447 67.6784 6.9087 67.993 7.0367C68.313 7.1647 68.593 7.35404 68.833 7.6047L68.209 8.4207C68.0704 8.25537 67.8997 8.12737 67.697 8.0367C67.4997 7.94604 67.3024 7.9007 67.105 7.9007C66.7904 7.9007 66.5184 8.0047 66.289 8.2127C66.065 8.41537 65.953 8.7007 65.953 9.0687C65.953 9.43137 66.065 9.71404 66.289 9.9167C66.5184 10.1194 66.785 10.2207 67.089 10.2207ZM73.4093 10.5967C72.9239 11.0554 72.3533 11.2847 71.6973 11.2847C71.0466 11.2847 70.5079 11.0847 70.0813 10.6847C69.6546 10.2794 69.4413 9.73804 69.4413 9.0607C69.4413 8.38337 69.6573 7.8447 70.0893 7.4447C70.5266 7.0447 71.0413 6.8447 71.6333 6.8447C72.2253 6.8447 72.7266 7.02337 73.1373 7.3807C73.5533 7.73804 73.7613 8.2287 73.7613 8.8527V9.4927H70.6253C70.6626 9.72737 70.7853 9.91937 70.9933 10.0687C71.2013 10.218 71.4359 10.2927 71.6973 10.2927C72.1186 10.2927 72.4653 10.1514 72.7373 9.8687L73.4093 10.5967ZM72.5453 8.6367C72.5186 8.3807 72.4226 8.18337 72.2573 8.0447C72.0919 7.90604 71.8893 7.8367 71.6493 7.8367C71.4146 7.8367 71.1986 7.9087 71.0013 8.0527C70.8039 8.1967 70.6893 8.39137 70.6573 8.6367H72.5453ZM78.2826 11.2207H77.1546V10.7007C76.8453 11.09 76.4613 11.2847 76.0026 11.2847C75.5493 11.2847 75.1679 11.154 74.8586 10.8927C74.5493 10.626 74.3946 10.274 74.3946 9.8367C74.3946 9.39404 74.5546 9.06337 74.8746 8.8447C75.1946 8.62604 75.6319 8.5167 76.1866 8.5167H77.0826V8.4927C77.0826 8.03404 76.8399 7.8047 76.3546 7.8047C76.1466 7.8047 75.9253 7.84737 75.6906 7.9327C75.4613 8.0127 75.2666 8.11404 75.1066 8.2367L74.5706 7.4607C75.1359 7.05004 75.7813 6.8447 76.5066 6.8447C77.0293 6.8447 77.4559 6.97537 77.7866 7.2367C78.1173 7.49804 78.2826 7.91137 78.2826 8.4767V11.2207ZM77.0746 9.5807V9.3727H76.3226C75.8426 9.3727 75.6026 9.52204 75.6026 9.8207C75.6026 9.97537 75.6586 10.0954 75.7706 10.1807C75.8879 10.2607 76.0533 10.3007 76.2666 10.3007C76.4799 10.3007 76.6666 10.2367 76.8266 10.1087C76.9919 9.97537 77.0746 9.79937 77.0746 9.5807ZM80.5766 8.8207V11.2207H79.3766V6.9167H80.5766V7.3967C80.9393 7.0287 81.3473 6.8447 81.8006 6.8447C82.2539 6.8447 82.6326 7.0047 82.9366 7.3247C83.2459 7.6447 83.4006 8.07137 83.4006 8.6047V11.2207H82.2006V8.7887C82.2006 8.12737 81.9579 7.7967 81.4726 7.7967C81.2326 7.7967 81.0219 7.8847 80.8406 8.0607C80.6646 8.23137 80.5766 8.4847 80.5766 8.8207ZM91.7233 7.7007L90.2113 10.7567H89.4673L87.9633 7.7007V11.2207H86.7153V5.6287H88.4033L89.8433 8.7007L91.2913 5.6287H92.9713V11.2207H91.7233V7.7007ZM97.8842 11.2207H96.7562V10.7007C96.4468 11.09 96.0628 11.2847 95.6042 11.2847C95.1508 11.2847 94.7695 11.154 94.4602 10.8927C94.1508 10.626 93.9962 10.274 93.9962 9.8367C93.9962 9.39404 94.1562 9.06337 94.4762 8.8447C94.7962 8.62604 95.2335 8.5167 95.7882 8.5167H96.6842V8.4927C96.6842 8.03404 96.4415 7.8047 95.9562 7.8047C95.7482 7.8047 95.5268 7.84737 95.2922 7.9327C95.0628 8.0127 94.8682 8.11404 94.7082 8.2367L94.1722 7.4607C94.7375 7.05004 95.3828 6.8447 96.1082 6.8447C96.6308 6.8447 97.0575 6.97537 97.3882 7.2367C97.7188 7.49804 97.8842 7.91137 97.8842 8.4767V11.2207ZM96.6762 9.5807V9.3727H95.9242C95.4442 9.3727 95.2042 9.52204 95.2042 9.8207C95.2042 9.97537 95.2602 10.0954 95.3722 10.1807C95.4895 10.2607 95.6548 10.3007 95.8682 10.3007C96.0815 10.3007 96.2682 10.2367 96.4282 10.1087C96.5935 9.97537 96.6762 9.79937 96.6762 9.5807ZM101.482 6.8447C101.983 6.8447 102.429 7.05537 102.818 7.4767C103.213 7.8927 103.41 8.41804 103.41 9.0527C103.41 9.68737 103.213 10.218 102.818 10.6447C102.429 11.0714 101.97 11.2847 101.442 11.2847C100.919 11.2847 100.498 11.074 100.178 10.6527V12.7727H98.9782V6.9167H100.178V7.3967C100.546 7.0287 100.981 6.8447 101.482 6.8447ZM100.162 9.0767C100.162 9.42337 100.258 9.7087 100.45 9.9327C100.647 10.1514 100.885 10.2607 101.162 10.2607C101.439 10.2607 101.682 10.1514 101.89 9.9327C102.098 9.7087 102.202 9.42337 102.202 9.0767C102.202 8.73004 102.101 8.43937 101.898 8.2047C101.695 7.97004 101.453 7.8527 101.17 7.8527C100.887 7.8527 100.647 7.97004 100.45 8.2047C100.258 8.43404 100.162 8.7247 100.162 9.0767ZM106.81 6.8447C107.312 6.8447 107.757 7.05537 108.146 7.4767C108.541 7.8927 108.738 8.41804 108.738 9.0527C108.738 9.68737 108.541 10.218 108.146 10.6447C107.757 11.0714 107.298 11.2847 106.77 11.2847C106.248 11.2847 105.826 11.074 105.506 10.6527V12.7727H104.306V6.9167H105.506V7.3967C105.874 7.0287 106.309 6.8447 106.81 6.8447ZM105.49 9.0767C105.49 9.42337 105.586 9.7087 105.778 9.9327C105.976 10.1514 106.213 10.2607 106.49 10.2607C106.768 10.2607 107.01 10.1514 107.218 9.9327C107.426 9.7087 107.53 9.42337 107.53 9.0767C107.53 8.73004 107.429 8.43937 107.226 8.2047C107.024 7.97004 106.781 7.8527 106.498 7.8527C106.216 7.8527 105.976 7.97004 105.778 8.2047C105.586 8.43404 105.49 8.7247 105.49 9.0767ZM110.834 11.2207H109.634V6.9167H110.834V11.2207ZM109.73 6.3727C109.597 6.23404 109.53 6.06604 109.53 5.8687C109.53 5.67137 109.597 5.50604 109.73 5.3727C109.869 5.23404 110.037 5.1647 110.234 5.1647C110.432 5.1647 110.597 5.23404 110.73 5.3727C110.869 5.50604 110.938 5.67137 110.938 5.8687C110.938 6.06604 110.869 6.23404 110.73 6.3727C110.597 6.50604 110.432 6.5727 110.234 6.5727C110.037 6.5727 109.869 6.50604 109.73 6.3727ZM113.17 8.8207V11.2207H111.97V6.9167H113.17V7.3967C113.533 7.0287 113.941 6.8447 114.394 6.8447C114.848 6.8447 115.226 7.0047 115.53 7.3247C115.84 7.6447 115.994 8.07137 115.994 8.6047V11.2207H114.794V8.7887C114.794 8.12737 114.552 7.7967 114.066 7.7967C113.826 7.7967 113.616 7.8847 113.434 8.0607C113.258 8.23137 113.17 8.4847 113.17 8.8207ZM120.096 8.9807C120.096 8.63404 120 8.36204 119.808 8.1647C119.616 7.96737 119.378 7.8687 119.096 7.8687C118.813 7.8687 118.568 7.96737 118.36 8.1647C118.157 8.36204 118.056 8.63137 118.056 8.9727C118.056 9.31404 118.154 9.59137 118.352 9.8047C118.554 10.0127 118.8 10.1167 119.088 10.1167C119.376 10.1167 119.616 10.0127 119.808 9.8047C120 9.5967 120.096 9.32204 120.096 8.9807ZM120.264 10.4927C119.885 10.914 119.413 11.1247 118.848 11.1247C118.288 11.1247 117.813 10.9354 117.424 10.5567C117.04 10.1727 116.848 9.66337 116.848 9.0287C116.848 8.3887 117.045 7.86604 117.44 7.4607C117.84 7.05004 118.296 6.8447 118.808 6.8447C119.32 6.8447 119.744 7.05537 120.08 7.4767V6.9087H121.28V10.6607C121.28 11.0447 121.213 11.386 121.08 11.6847C120.946 11.9834 120.768 12.218 120.544 12.3887C120.101 12.7407 119.578 12.9167 118.976 12.9167C118.656 12.9167 118.328 12.8634 117.992 12.7567C117.661 12.6554 117.37 12.5087 117.12 12.3167L117.584 11.4127C117.978 11.7114 118.394 11.8607 118.832 11.8607C119.274 11.8607 119.624 11.7514 119.88 11.5327C120.136 11.314 120.264 10.9674 120.264 10.4927ZM128.277 8.3727H129.533V10.3567C128.978 10.9754 128.21 11.2847 127.229 11.2847C126.408 11.2847 125.717 11.0127 125.157 10.4687C124.602 9.9247 124.325 9.23937 124.325 8.4127C124.325 7.5807 124.608 6.88737 125.173 6.3327C125.744 5.77804 126.429 5.5007 127.229 5.5007C128.034 5.5007 128.733 5.7647 129.325 6.2927L128.677 7.2287C128.426 7.01004 128.194 6.8607 127.981 6.7807C127.773 6.69537 127.546 6.6527 127.301 6.6527C126.826 6.6527 126.426 6.81537 126.101 7.1407C125.776 7.4607 125.613 7.8847 125.613 8.4127C125.613 8.9407 125.768 9.3647 126.077 9.6847C126.392 9.99937 126.765 10.1567 127.197 10.1567C127.629 10.1567 127.989 10.074 128.277 9.9087V8.3727ZM134.181 11.2207H133.053V10.7007C132.744 11.09 132.36 11.2847 131.901 11.2847C131.448 11.2847 131.066 11.154 130.757 10.8927C130.448 10.626 130.293 10.274 130.293 9.8367C130.293 9.39404 130.453 9.06337 130.773 8.8447C131.093 8.62604 131.53 8.5167 132.085 8.5167H132.981V8.4927C132.981 8.03404 132.738 7.8047 132.253 7.8047C132.045 7.8047 131.824 7.84737 131.589 7.9327C131.36 8.0127 131.165 8.11404 131.005 8.2367L130.469 7.4607C131.034 7.05004 131.68 6.8447 132.405 6.8447C132.928 6.8447 133.354 6.97537 133.685 7.2367C134.016 7.49804 134.181 7.91137 134.181 8.4767V11.2207ZM132.973 9.5807V9.3727H132.221C131.741 9.3727 131.501 9.52204 131.501 9.8207C131.501 9.97537 131.557 10.0954 131.669 10.1807C131.786 10.2607 131.952 10.3007 132.165 10.3007C132.378 10.3007 132.565 10.2367 132.725 10.1087C132.89 9.97537 132.973 9.79937 132.973 9.5807ZM136.475 8.8207V11.2207H135.275V6.9167H136.475V7.3967C136.838 7.0287 137.246 6.8447 137.699 6.8447C138.152 6.8447 138.531 7.0047 138.835 7.3247C139.144 7.6447 139.299 8.07137 139.299 8.6047V11.2207H138.099V8.7887C138.099 8.12737 137.856 7.7967 137.371 7.7967C137.131 7.7967 136.92 7.8847 136.739 8.0607C136.563 8.23137 136.475 8.4847 136.475 8.8207ZM143.4 8.9807C143.4 8.63404 143.304 8.36204 143.112 8.1647C142.92 7.96737 142.683 7.8687 142.4 7.8687C142.118 7.8687 141.872 7.96737 141.664 8.1647C141.462 8.36204 141.36 8.63137 141.36 8.9727C141.36 9.31404 141.459 9.59137 141.656 9.8047C141.859 10.0127 142.104 10.1167 142.392 10.1167C142.68 10.1167 142.92 10.0127 143.112 9.8047C143.304 9.5967 143.4 9.32204 143.4 8.9807ZM143.568 10.4927C143.19 10.914 142.718 11.1247 142.152 11.1247C141.592 11.1247 141.118 10.9354 140.728 10.5567C140.344 10.1727 140.152 9.66337 140.152 9.0287C140.152 8.3887 140.35 7.86604 140.744 7.4607C141.144 7.05004 141.6 6.8447 142.112 6.8447C142.624 6.8447 143.048 7.05537 143.384 7.4767V6.9087H144.584V10.6607C144.584 11.0447 144.518 11.386 144.384 11.6847C144.251 11.9834 144.072 12.218 143.848 12.3887C143.406 12.7407 142.883 12.9167 142.28 12.9167C141.96 12.9167 141.632 12.8634 141.296 12.7567C140.966 12.6554 140.675 12.5087 140.424 12.3167L140.888 11.4127C141.283 11.7114 141.699 11.8607 142.136 11.8607C142.579 11.8607 142.928 11.7514 143.184 11.5327C143.44 11.314 143.568 10.9674 143.568 10.4927Z" fill="black"/>
<path d="M58.045 40.2207V17.8207H68.637C76.061 17.8207 81.149 22.1407 81.149 29.0207C81.149 35.9007 76.061 40.2207 68.637 40.2207H58.045ZM64.381 35.1647H68.381C72.189 35.1647 74.749 32.8927 74.749 29.0207C74.749 25.1487 72.189 22.8767 68.381 22.8767H64.381V35.1647ZM87.3625 40.2207V17.8207H93.6985V40.2207H87.3625ZM117.472 17.8207H123.744L114.144 40.2207H107.904L98.3358 17.8207H105.184L111.264 32.4127L117.472 17.8207ZM134.207 35.3247H145.919V40.2207H127.935V17.8207H145.503V22.7167H134.207V26.4927H144.159V31.2287H134.207V35.3247Z" fill="black"/>
<defs>
<linearGradient id="paint0_linear_67_21" x1="9.14853" y1="13.2461" x2="9.14853" y2="32.5826" gradientUnits="userSpaceOnUse">
<stop stop-color="#031439"/>
<stop offset="0.5" stop-color="#0F275A"/>
<stop offset="1" stop-color="#244896"/>
</linearGradient>
<linearGradient id="paint1_linear_67_21" x1="32.7748" y1="2.83008" x2="32.7748" y2="32.5827" gradientUnits="userSpaceOnUse">
<stop stop-color="#031439"/>
<stop offset="0.5" stop-color="#0F275A"/>
<stop offset="1" stop-color="#244896"/>
</linearGradient>
<linearGradient id="paint2_linear_67_21" x1="23.5" y1="34.8809" x2="23.5" y2="46.9424" gradientUnits="userSpaceOnUse">
<stop stop-color="#031439"/>
<stop offset="0.5" stop-color="#0F275A"/>
<stop offset="1" stop-color="#244896"/>
</linearGradient>
<linearGradient id="paint3_linear_67_21" x1="19.107" y1="2.91016" x2="19.107" y2="34.9472" gradientUnits="userSpaceOnUse">
<stop stop-color="#031439"/>
<stop offset="0.5" stop-color="#0F275A"/>
<stop offset="1" stop-color="#244896"/>
</linearGradient>
<linearGradient id="paint4_linear_67_21" x1="19.1068" y1="0" x2="19.1068" y2="3.5627" gradientUnits="userSpaceOnUse">
<stop stop-color="#031439"/>
<stop offset="0.5" stop-color="#0F275A"/>
<stop offset="1" stop-color="#244896"/>
</linearGradient>
</defs>
</svg>
